{
  "asset": {
    "version": "2.0",
    "generator": "python"
  },
  "extensionsUsed": [
    "B4Z_node_additional_meshes"
  ],
  "buffers": [
    {
      "byteLength": 104,
      "uri": "data:application/octet-stream;base64,"
    }
  ],
  "bufferViews": [
    {
      "buffer": 0,
      "byteOffset": 0,
      "byteLength": 96,
      "target": 34962
    },
    {
      "buffer": 0,
      "byteOffset": 96,
      "byteLength": 8,
      "target": 34963
    }
  ],
  "accessors": [
    {
      "bufferView": 0,
      "componentType": 5126,
      "count": 8,
      "type": "VEC3",
      "min": [
        -0.5,
        -0.5,
        -0.5
      ],
      "max": [
        0.5,
        0.5,
        0.5
      ]
    },
    {
      "bufferView": 1,
      "componentType": 5121,
      "count": 8,
      "type": "SCALAR"
    }
  ],
  "nodes": [
    {
      "name": "UnitCube",
      "extensions": {
        "B4Z_node_additional_meshes": {
          "meshes": [
            {
              "id": "unit_cube",
              "topology": "HEXAHEDRA",
              "vertices": 0,
              "indices": 1
            }
          ]
        }
      }
    }
  ],
  "scenes": [
    {
      "nodes": [
        0
      ]
    }
  ],
  "scene": 0
}
